# xmcd
#
# Track frame offsets:
#	150
#	11414
#	22513
#	34725
#	44080
#	54839
#	67723
#	79112
#	89678
#	100403
#	114078
#	126699
#	139837
#	150838
#	163599
#	176703
#	190152
#	202099
#	213266
#	226025
#	235178
#	246822
#	258726
#	270193
#	283171
#	294262
#
# Disc length: 4096 seconds
# Revision: 1
# Processed by: cddbd v1.5.2PL0 Copyright (c) Steve Scherf et al.
# Submitted via: dBpowerAMP V12.0
#
DISCID=5e0ffe1a
DTITLE=Tammy Wynette - The Ways To Love A Man and Tammy's Touch
DYEAR=1996
DGENRE=Country
TTITLE0=The Ways To Love A Man
TTITLE1=The Twelfth of Never
TTITLE2=I'll Share my World with You
TTITLE3=Enough of a Woman
TTITLE4=Singing My Song
TTITLE5=He'll Never Take the Place of You
TTITLE6=I Know
TTITLE7=Yearning (To Kiss You)
TTITLE8=These Two
TTITLE9=Where Could You Go (But to Her)
TTITLE10=Still Around
TTITLE11=I'll See Him Through
TTITLE12=Love Me, Love Me
TTITLE13=It's Just a Matter of Time
TTITLE14=Cold Lonely Feeling
TTITLE15=The Divorce Sale
TTITLE16=He Loves Me All the Way
TTITLE17=He Thinks I Love Him
TTITLE18=Our Last Night Together
TTITLE19=Lighter Shade of Blue
TTITLE20=Lonely Days (And Nights More Lonely)
TTITLE21=You Make My Skies Turn Blue
TTITLE22=Run, Angel, Run
TTITLE23=Too Far Gone
TTITLE24=Run, Woman, Run
TTITLE25=My Daddy Doll
EXTD=
EXTT0=
EXTT1=
EXTT2=
EXTT3=
EXTT4=
EXTT5=
EXTT6=
EXTT7=
EXTT8=
EXTT9=
EXTT10=
EXTT11=
EXTT12=
EXTT13=
EXTT14=
EXTT15=
EXTT16=
EXTT17=
EXTT18=
EXTT19=
EXTT20=
EXTT21=
EXTT22=
EXTT23=
EXTT24=
EXTT25=
PLAYORDER=
